# xmcd CD database file
#
# Track frame offsets:
#	150
#	19042
#	37581
#	56452
#	74772
#	90191
#	110391
#	130885
#	151012
#	169514
#	187524
#	210580
#	227016
#	245034
#	266934
#	289437
#	300769
#	321533
#
# Disc length: 4475 seconds
#
# Revision: 0
# Processed by: cddbd v1.5.2PL0 Copyright (c) Steve Scherf et al.
# Submitted via: CDex 1.51
#
DISCID=e9117912
DTITLE=Dawn Lambeth - Let's Get Lost
DYEAR=2009
DGENRE=Jazz
TTITLE0=C'est Si Bon
TTITLE1=They Can't Take That Away From Me
TTITLE2=My Blue Heaven
TTITLE3=If You Were Mine
TTITLE4=They All Laughed
TTITLE5=Let's Get Lost
TTITLE6=Isn't This a Lovely Day
TTITLE7=Give Me the Simple Life
TTITLE8=With a Song in My Heart
TTITLE9=Dream Man
TTITLE10=(I've Got) Beginner's Luck
TTITLE11=It Could Happen to You
TTITLE12=I Wish I Were Twins
TTITLE13=I May Be Wrong (But I Think You're Wonderful)
TTITLE14=I Gotta Right to Sing the Blues
TTITLE15=Let's Misbehave
TTITLE16=On the Sunny Side of the Street
TTITLE17=Blue Room
EXTD=YEAR: 2009
EXTT0=
EXTT1=
EXTT2=
EXTT3=
EXTT4=
EXTT5=
EXTT6=
EXTT7=
EXTT8=
EXTT9=
EXTT10=
EXTT11=
EXTT12=
EXTT13=
EXTT14=
EXTT15=
EXTT16=
EXTT17=
PLAYORDER=
